# xmcd
#
# Track frame offsets: 
#        150
#        24347
#        50224
#        66494
#        86926
#        116486
#        146286
#        162443
#        178983
#        196310
#
# Disc length: 2923 seconds
#
# Revision: 0
# Processed by: cddbd v1.5.2PL0 Copyright (c) Steve Scherf et al.
# Submitted via: ExactAudioCopy v1.0b3
#
DISCID=940b690a
DTITLE=Deborah Coleman - Stop The Game
DYEAR=2007
DGENRE=Blues
TTITLE0=I Got To Know
TTITLE1=Stop The Game
TTITLE2=Motor City Il
TTITLE3=Everlastin' Tears
TTITLE4=Greezy
TTITLE5=Changes
TTITLE6=Long Time
TTITLE7=Seven Days
TTITLE8=Zero
TTITLE9=Wagon Wheel
EXTD=
EXTT0=
EXTT1=
EXTT2=
EXTT3=
EXTT4=
EXTT5=
EXTT6=
EXTT7=
EXTT8=
EXTT9=
PLAYORDER=
